<?xml version="1.0" encoding="utf-8"?>
<!-- Generator: Adobe Illustrator 16.0.0, SVG Export Plug-In . SVG Version: 6.00 Build 0)  -->
<!DOCTYPE svg PUBLIC "-//W3C//DTD SVG 1.1//EN" "http://www.w3.org/Graphics/SVG/1.1/DTD/svg11.dtd">
<svg version="1.1" xmlns="http://www.w3.org/2000/svg" xmlns:xlink="http://www.w3.org/1999/xlink" x="0px" y="0px"
	 width="326.981px" height="123.6px" viewBox="0 0 326.981 123.6" enable-background="new 0 0 326.981 123.6" xml:space="preserve">
<g id="Background">
</g>
<g id="Layer_1">
	<g>
		<path fill="#ED1E79" d="M159.75,74.355l-59.217-30.739L156.763,7.7L159.75,74.355z M120.434,42.727l28.592,14.84l-1.44-32.183
			L120.434,42.727z"/>
	</g>
	<g>
		<path fill="#FCEE21" d="M57.264,74.749c-18.593,0-33.721-15.127-33.721-33.721S38.67,7.307,57.264,7.307
			c18.594,0,33.722,15.127,33.722,33.721S75.858,74.749,57.264,74.749z M57.264,18.61c-12.362,0-22.417,10.055-22.417,22.418
			c0,12.362,10.055,22.418,22.417,22.418c12.363,0,22.418-10.056,22.418-22.418C79.682,28.665,69.627,18.61,57.264,18.61z"/>
	</g>
	<g>
		<g>
			<polygon fill="#39B54A" points="228.384,72.405 168.987,19.342 177.649,9.65 237.047,62.716 			"/>
		</g>
		<g>
			
				<rect x="196.518" y="1.2" transform="matrix(0.7458 0.6662 -0.6662 0.7458 78.9417 -124.8172)" fill="#39B54A" width="12.998" height="79.656"/>
		</g>
	</g>
	
		<rect x="250.058" y="15.344" fill="none" stroke="#0D38D1" stroke-width="13" stroke-miterlimit="10" width="47.969" height="50.423"/>
	<g>
		<path fill="#FFFFFF" d="M37.158,72.875l21.305,32.401l-13.247,5.021l-3.544-5.907l-8.859,0.295l-1.73,6.328l-12.699-4.134
			L37.158,72.875z M35.006,97.978l5.02-0.886l-2.109-5.738L35.006,97.978z"/>
		<path fill="#FFFFFF" d="M66.436,84.478v2.869c0.9-0.984,1.835-1.709,2.806-2.173c0.97-0.464,2.13-0.696,3.48-0.696
			c1.688,0,3.228,0.373,4.62,1.118c1.393,0.746,2.574,1.723,3.544,2.932c0.97,1.209,1.723,2.581,2.257,4.113
			c0.534,1.533,0.801,3.087,0.801,4.662c0,1.688-0.281,3.312-0.844,4.873c-0.563,1.561-1.357,2.947-2.383,4.156
			c-1.027,1.209-2.257,2.18-3.692,2.911c-1.434,0.731-3.01,1.097-4.725,1.097c-0.872,0-1.808-0.126-2.806-0.38
			c-0.999-0.253-1.892-0.759-2.679-1.519l0.253,8.396l-8.902,0.759l-0.464-32.359L66.436,84.478z M72.174,100.805
			c1.266-0.591,2.116-1.42,2.552-2.489c0.436-1.068,0.429-2.067-0.021-2.995c-0.45-0.956-1.217-1.596-2.299-1.92
			c-1.083-0.323-2.257-0.189-3.522,0.401c-1.294,0.619-2.167,1.456-2.616,2.51c-0.45,1.055-0.437,2.061,0.042,3.017
			c0.225,0.479,0.534,0.879,0.928,1.202c0.394,0.324,0.85,0.556,1.371,0.696c0.52,0.141,1.083,0.183,1.688,0.126
			C70.901,101.297,71.526,101.115,72.174,100.805z"/>
		<path fill="#FFFFFF" d="M93.395,84.478v2.869c0.9-0.984,1.835-1.709,2.806-2.173c0.97-0.464,2.13-0.696,3.48-0.696
			c1.688,0,3.228,0.373,4.62,1.118c1.393,0.746,2.574,1.723,3.544,2.932c0.97,1.209,1.723,2.581,2.257,4.113
			c0.534,1.533,0.801,3.087,0.801,4.662c0,1.688-0.281,3.312-0.844,4.873c-0.563,1.561-1.357,2.947-2.383,4.156
			c-1.027,1.209-2.257,2.18-3.692,2.911c-1.434,0.731-3.01,1.097-4.725,1.097c-0.872,0-1.808-0.126-2.806-0.38
			c-0.999-0.253-1.892-0.759-2.679-1.519l0.253,8.396l-8.902,0.759l-0.464-32.359L93.395,84.478z M99.132,100.805
			c1.266-0.591,2.116-1.42,2.552-2.489c0.436-1.068,0.429-2.067-0.021-2.995c-0.45-0.956-1.217-1.596-2.299-1.92
			c-1.083-0.323-2.257-0.189-3.522,0.401c-1.294,0.619-2.167,1.456-2.616,2.51c-0.45,1.055-0.437,2.061,0.042,3.017
			c0.225,0.479,0.534,0.879,0.928,1.202c0.394,0.324,0.85,0.556,1.371,0.696c0.52,0.141,1.083,0.183,1.688,0.126
			C97.859,101.297,98.485,101.115,99.132,100.805z"/>
		<path fill="#FFFFFF" d="M111.747,76.167l9.535-0.759l-0.38,33.962l-8.859,0.759L111.747,76.167z"/>
		<path fill="#FFFFFF" d="M134.36,94.181l2.067-9.282l8.691,0.759l-9.028,31.811l-9.535-0.759l3.628-9.915l-7.932-20.757
			l9.197-1.139l2.827,9.282H134.36z"/>
		<path fill="#FFFFFF" d="M177.328,108.251c-0.802,0.408-1.625,0.738-2.468,0.992c-0.844,0.253-1.702,0.429-2.573,0.527
			c-0.873,0.098-1.716,0.147-2.532,0.147c-1.913,0-3.677-0.323-5.294-0.97c-1.618-0.647-3.024-1.54-4.219-2.679
			c-1.196-1.139-2.131-2.475-2.806-4.008c-0.675-1.533-1.013-3.185-1.013-4.957c0-2.053,0.352-3.903,1.055-5.548
			c0.703-1.646,1.681-3.038,2.932-4.177s2.735-2.011,4.451-2.616c1.715-0.604,3.571-0.907,5.569-0.907
			c1.997,0,3.734,0.324,5.21,0.97c1.477,0.647,2.721,1.308,3.733,1.983l-5.569,7.299c-0.394-0.309-0.851-0.563-1.371-0.759
			c-0.521-0.197-1.048-0.337-1.582-0.422c-0.535-0.084-1.048-0.112-1.54-0.084c-0.492,0.028-0.893,0.126-1.202,0.295
			c-0.535,0.281-0.992,0.612-1.371,0.991c-0.38,0.38-0.675,0.795-0.886,1.245c-0.211,0.45-0.31,0.936-0.295,1.456
			c0.014,0.521,0.162,1.048,0.443,1.582c0.562,1.125,1.364,1.814,2.405,2.067c1.04,0.253,2.137,0.099,3.291-0.464l2.151-1.097
			l5.738,7.594C178.882,107.33,178.129,107.844,177.328,108.251z"/>
		<path fill="#FFFFFF" d="M205.278,95.193c0.281,1.941,0.19,3.749-0.274,5.421c-0.464,1.674-1.209,3.15-2.236,4.43
			c-1.027,1.28-2.307,2.334-3.839,3.164c-1.533,0.83-3.242,1.371-5.126,1.624c-1.884,0.253-3.685,0.197-5.4-0.168
			c-1.716-0.365-3.249-1.02-4.599-1.962c-1.35-0.942-2.476-2.152-3.375-3.628c-0.9-1.477-1.477-3.185-1.73-5.126
			c-0.281-1.94-0.19-3.748,0.274-5.421c0.464-1.673,1.209-3.157,2.236-4.451c1.026-1.293,2.306-2.355,3.839-3.185
			c1.533-0.83,3.241-1.371,5.126-1.625c1.884-0.253,3.677-0.196,5.379,0.169c1.702,0.366,3.228,1.02,4.578,1.962
			s2.475,2.159,3.375,3.649C204.406,91.538,204.997,93.253,205.278,95.193z M187.559,98.78c0.478,1.097,1.237,1.814,2.278,2.151
			s2.222,0.226,3.544-0.337c1.293-0.563,2.187-1.329,2.679-2.299c0.492-0.97,0.513-2.004,0.063-3.101
			c-0.479-1.068-1.238-1.778-2.278-2.13c-1.041-0.351-2.208-0.246-3.502,0.316c-1.322,0.563-2.229,1.336-2.721,2.32
			C187.13,96.685,187.109,97.711,187.559,98.78z"/>
		<path fill="#FFFFFF" d="M214.981,88.021h0.169c0.928-1.266,1.877-2.123,2.848-2.574c0.97-0.449,2.032-0.675,3.185-0.675
			c1.181,0,2.222,0.211,3.122,0.633c0.9,0.422,1.659,1.013,2.278,1.772c0.618,0.759,1.089,1.646,1.413,2.658
			c0.323,1.013,0.485,2.109,0.485,3.291v16.327l-9.113,0.759l0.126-15.357c0.028-0.506-0.162-0.928-0.569-1.266
			c-0.408-0.337-0.894-0.506-1.456-0.506c-0.535,0-1.02,0.162-1.456,0.485c-0.437,0.324-0.654,0.767-0.654,1.329l0.168,15.23
			l-8.986-0.633l-0.337-24.005l8.775-0.717V88.021z"/>
		<path fill="#FFFFFF" d="M232.848,101.902c0.773,0.141,1.609,0.211,2.51,0.211c0.394,0,0.808-0.007,1.244-0.021
			c0.436-0.014,0.83-0.056,1.182-0.126c0.351-0.07,0.646-0.19,0.886-0.358c0.239-0.169,0.359-0.422,0.359-0.76
			c0-0.422-0.218-0.738-0.654-0.949s-0.97-0.415-1.603-0.611s-1.329-0.429-2.088-0.696c-0.759-0.267-1.456-0.661-2.088-1.181
			s-1.167-1.216-1.603-2.088c-0.437-0.872-0.654-2.011-0.654-3.417c0-0.928,0.183-1.842,0.548-2.742
			c0.365-0.9,0.956-1.715,1.772-2.447c0.815-0.731,1.87-1.322,3.164-1.772c1.293-0.45,2.854-0.675,4.683-0.675
			c0.703,0,1.406,0.028,2.109,0.084c0.703,0.057,1.371,0.134,2.004,0.232c0.633,0.099,1.216,0.197,1.751,0.295
			c0.534,0.099,0.984,0.19,1.35,0.274v7.425c-0.704-0.169-1.393-0.31-2.067-0.422c-0.675-0.112-1.407-0.168-2.194-0.168
			c-0.169,0-0.437,0.007-0.802,0.021c-0.366,0.015-0.731,0.057-1.097,0.126c-0.366,0.071-0.689,0.19-0.971,0.359
			c-0.281,0.168-0.422,0.394-0.422,0.675c0,0.45,0.225,0.788,0.675,1.013c0.45,0.226,1.005,0.437,1.667,0.633
			c0.661,0.197,1.385,0.437,2.173,0.717c0.787,0.281,1.511,0.682,2.172,1.202c0.661,0.521,1.216,1.217,1.667,2.088
			c0.45,0.872,0.675,2.011,0.675,3.417c0,1.519-0.331,2.784-0.992,3.797c-0.661,1.013-1.533,1.821-2.616,2.426
			c-1.083,0.605-2.328,1.034-3.733,1.287c-1.407,0.253-2.869,0.38-4.388,0.38c-1.182,0-2.342-0.07-3.481-0.211
			c-1.139-0.141-2.285-0.365-3.438-0.675v-7.89C231.308,101.579,232.074,101.761,232.848,101.902z"/>
		<path fill="#FFFFFF" d="M275.058,95.193c0.281,1.941,0.19,3.749-0.274,5.421c-0.464,1.674-1.209,3.15-2.236,4.43
			c-1.027,1.28-2.307,2.334-3.839,3.164c-1.533,0.83-3.242,1.371-5.126,1.624c-1.884,0.253-3.685,0.197-5.4-0.168
			c-1.716-0.365-3.249-1.02-4.599-1.962c-1.35-0.942-2.476-2.152-3.375-3.628c-0.9-1.477-1.477-3.185-1.73-5.126
			c-0.281-1.94-0.19-3.748,0.274-5.421c0.464-1.673,1.209-3.157,2.236-4.451c1.026-1.293,2.306-2.355,3.839-3.185
			c1.533-0.83,3.241-1.371,5.126-1.625c1.884-0.253,3.677-0.196,5.379,0.169c1.702,0.366,3.228,1.02,4.578,1.962
			s2.475,2.159,3.375,3.649C274.186,91.538,274.776,93.253,275.058,95.193z M257.338,98.78c0.478,1.097,1.237,1.814,2.278,2.151
			s2.222,0.226,3.544-0.337c1.293-0.563,2.187-1.329,2.679-2.299c0.492-0.97,0.513-2.004,0.063-3.101
			c-0.479-1.068-1.238-1.778-2.278-2.13c-1.041-0.351-2.208-0.246-3.502,0.316c-1.322,0.563-2.229,1.336-2.721,2.32
			C256.909,96.685,256.888,97.711,257.338,98.78z"/>
		<path fill="#FFFFFF" d="M276.281,76.167l9.535-0.759l-0.38,33.962l-8.859,0.759L276.281,76.167z"/>
		<path fill="#FFFFFF" d="M311.466,106.584c-1.716,1.238-3.474,2.131-5.274,2.679c-1.8,0.548-3.868,0.823-6.202,0.823
			c-1.913,0-3.664-0.331-5.252-0.992c-1.589-0.661-2.96-1.554-4.113-2.679c-1.154-1.125-2.054-2.44-2.7-3.945
			c-0.647-1.504-0.97-3.101-0.97-4.789c0-2.109,0.337-3.993,1.012-5.653c0.675-1.659,1.589-3.065,2.742-4.219
			c1.153-1.153,2.496-2.032,4.029-2.637c1.533-0.604,3.171-0.907,4.915-0.907c2.812,0,5.252,0.717,7.32,2.152
			c2.067,1.434,3.607,3.347,4.62,5.737l-12.615,9.493c0.31,0.169,0.717,0.282,1.224,0.337c0.506,0.057,0.97,0.084,1.392,0.084
			c1.293,0,2.384-0.232,3.27-0.696c0.886-0.464,1.694-1.019,2.426-1.666L311.466,106.584z M302.438,92.747
			c-0.394-0.478-0.823-0.802-1.287-0.97c-0.464-0.169-0.991-0.253-1.582-0.253c-0.563,0-1.076,0.12-1.54,0.359
			c-0.464,0.239-0.865,0.563-1.202,0.97c-0.337,0.408-0.598,0.865-0.781,1.371c-0.183,0.506-0.274,1.027-0.274,1.561
			c0,0.506,0.035,0.865,0.105,1.076c0.07,0.211,0.161,0.429,0.274,0.654L302.438,92.747z"/>
	</g>
</g>
</svg>
