<?xml version="1.0" encoding="utf-8"?>
<!-- Generator: Adobe Illustrator 16.0.0, SVG Export Plug-In . SVG Version: 6.00 Build 0)  -->
<!DOCTYPE svg PUBLIC "-//W3C//DTD SVG 1.1//EN" "http://www.w3.org/Graphics/SVG/1.1/DTD/svg11.dtd">
<svg version="1.1" xmlns="http://www.w3.org/2000/svg" xmlns:xlink="http://www.w3.org/1999/xlink" x="0px" y="0px"
	 width="419.979px" height="179.602px" viewBox="0 0 419.979 179.602" enable-background="new 0 0 419.979 179.602"
	 xml:space="preserve">
<g id="Background">
</g>
<g id="Layer_1">
	<g>
		<path fill="#ED1E79" d="M199.631,107.066L119.651,65.55l75.946-48.509L199.631,107.066z M146.53,64.348l38.617,20.043
			l-1.945-43.467L146.53,64.348z"/>
	</g>
	<g>
		<path fill="#FCEE21" d="M61.213,107.598c-25.112,0-45.544-20.431-45.544-45.544c0-25.113,20.432-45.544,45.544-45.544
			c25.113,0,45.545,20.431,45.545,45.544C106.758,87.167,86.326,107.598,61.213,107.598z M61.213,31.775
			c-16.697,0-30.278,13.581-30.278,30.278c0,16.697,13.581,30.278,30.278,30.278c16.698,0,30.278-13.582,30.278-30.278
			C91.491,45.356,77.911,31.775,61.213,31.775z"/>
	</g>
	<g>
		<g>
			<polygon fill="#39B54A" points="292.329,104.432 212.107,32.765 223.806,19.674 304.03,91.346 			"/>
		</g>
		<g>
			
				<rect x="249.291" y="8.261" transform="matrix(0.7458 0.6662 -0.6662 0.7458 106.9434 -156.1466)" fill="#39B54A" width="17.556" height="107.584"/>
		</g>
	</g>
	
		<rect x="321.603" y="27.365" fill="none" stroke="#0D38D1" stroke-width="19" stroke-miterlimit="10" width="64.788" height="68.102"/>
	<text transform="matrix(1 0 0 1 11.6689 154.3311)" font-family="'GROBOLD'" font-size="59.3627">Appy console</text>
</g>
</svg>
